<?xml version="1.0" encoding="UTF-8" standalone="no"?>
<!-- Created with Inkscape (http://www.inkscape.org/) -->

<svg
   width="128"
   height="128"
   viewBox="0 0 33.866666 33.866666"
   version="1.1"
   id="svg1"
   inkscape:version="1.4 (e7c3feb100, 2024-10-09)"
   sodipodi:docname="abduct1.svg"
   inkscape:export-filename="abduct1.png"
   inkscape:export-xdpi="96"
   inkscape:export-ydpi="96"
   xmlns:inkscape="http://www.inkscape.org/namespaces/inkscape"
   xmlns:sodipodi="http://sodipodi.sourceforge.net/DTD/sodipodi-0.dtd"
   xmlns="http://www.w3.org/2000/svg"
   xmlns:svg="http://www.w3.org/2000/svg">
  <sodipodi:namedview
     id="namedview1"
     pagecolor="#505050"
     bordercolor="#eeeeee"
     borderopacity="1"
     inkscape:showpageshadow="0"
     inkscape:pageopacity="0"
     inkscape:pagecheckerboard="0"
     inkscape:deskcolor="#505050"
     inkscape:document-units="mm"
     inkscape:zoom="5.5335714"
     inkscape:cx="69.846393"
     inkscape:cy="72.286047"
     inkscape:window-width="1860"
     inkscape:window-height="1000"
     inkscape:window-x="0"
     inkscape:window-y="0"
     inkscape:window-maximized="1"
     inkscape:current-layer="layer1" />
  <defs
     id="defs1" />
  <g
     inkscape:label="Layer 1"
     inkscape:groupmode="layer"
     id="layer1">
    <g
       id="SVGRepo_bgCarrier"
       stroke-width="0"
       transform="matrix(0.58852792,0,0,0.58852792,16.197673,15.020618)"
       style="fill:#ffffff" />
    <g
       id="SVGRepo_tracerCarrier"
       stroke-linecap="round"
       stroke-linejoin="round"
       transform="matrix(0.58852792,0,0,0.58852792,16.197673,15.020618)"
       style="fill:#ffffff" />
    <g
       id="SVGRepo_iconCarrier"
       transform="matrix(0.46628035,0.35909294,-0.35909294,0.46628035,25.049198,-2.8652766)"
       style="fill:#ffffff">
      <path
         fill-rule="evenodd"
         clip-rule="evenodd"
         d="M 6.36662,7.59895 C 6.88733,5.11517 9.09023,3.25 11.7288,3.25 h 0.5424 c 2.6386,0 4.8415,1.86517 5.3622,4.34895 1.358,0.3679 2.5388,0.87429 3.4209,1.49883 0.9656,0.68373 1.6957,1.60412 1.6957,2.72842 0,0.8371 -0.4096,1.567 -1.0091,2.1584 -0.5967,0.5889 -1.4218,1.0847 -2.381,1.485 -0.0101,0.0042 -0.0203,0.0085 -0.0305,0.0127 l 0.8414,1.6822 c 0.1853,0.3704 0.0352,0.821 -0.3353,1.0063 -0.3705,0.1853 -0.821,0.0352 -1.0063,-0.3353 l -0.9287,-1.8568 c -1.4995,0.434 -3.2625,0.7033 -5.1505,0.7599 -1.5,0 0,0 -1.5,0 C 9.36201,16.682 7.59897,16.4127 6.09952,15.9787 L 5.17077,17.8355 C 4.98548,18.206 4.53495,18.3561 4.16449,18.1708 3.79404,17.9855 3.64393,17.5349 3.82923,17.1645 L 4.67064,15.4823 C 4.66043,15.4781 4.65023,15.4738 4.64006,15.4696 3.68091,15.0693 2.85581,14.5735 2.25907,13.9846 1.65964,13.3932 1.25,12.6633 1.25,11.8262 1.25,10.7019 1.98006,9.78151 2.94573,9.09778 3.8278,8.47324 5.00857,7.96685 6.36662,7.59895 Z M 6.31758,9.1738 C 5.27525,9.49234 4.425,9.88832 3.81252,10.322 3.02544,10.8793 2.75,11.4057 2.75,11.8262 c 0,0.3155 0.15,0.6836 0.56263,1.0907 0.41531,0.4098 1.05468,0.8134 1.90517,1.1684 1.69776,0.7086 4.09519,1.1646 6.7822,1.1646 2.687,0 5.0844,-0.456 6.7822,-1.1646 0.8505,-0.355 1.4899,-0.7586 1.9052,-1.1684 C 21.1,12.5098 21.25,12.1417 21.25,11.8262 21.25,11.4057 20.9746,10.8793 20.1875,10.322 19.575,9.88832 18.7247,9.49234 17.6824,9.1738 17.6121,9.39507 17.4763,9.62375 17.2285,9.79611 16.6273,10.2142 15.2456,10.75 12,10.75 8.75443,10.75 7.37265,10.2142 6.77147,9.79611 6.52367,9.62375 6.38791,9.39507 6.31758,9.1738 Z M 7.751,8.63868 C 8.13808,8.84517 9.25423,9.25 12,9.25 14.7458,9.25 15.8619,8.84517 16.249,8.63868 16.2011,6.48287 14.4385,4.75 12.2712,4.75 H 11.7288 C 9.56146,4.75 7.79889,6.48287 7.751,8.63868 Z m 8.4987,0.09715 c 0,-10e-6 0,-4.5e-4 10e-5,-0.00132 z"
         fill="#1c274c"
         id="path1"
         style="fill:#ffffff"
         sodipodi:nodetypes="cssccsccccsccccccsccccssccssccsccssccscccscsscccc" />
      <path
         d="m 13,13 c 0,0.5523 -0.4477,1 -1,1 -0.5523,0 -1,-0.4477 -1,-1 0,-0.5523 0.4477,-1 1,-1 0.5523,0 1,0.4477 1,1 z"
         fill="#1c274c"
         id="path2"
         style="fill:#ffffff" />
      <path
         d="m 8,12 c 0,0.5523 -0.44772,1 -1,1 -0.55228,0 -1,-0.4477 -1,-1 0,-0.5523 0.44772,-1 1,-1 0.55228,0 1,0.4477 1,1 z"
         fill="#1c274c"
         id="path3"
         style="fill:#ffffff" />
      <path
         d="m 18,12 c 0,0.5523 -0.4477,1 -1,1 -0.5523,0 -1,-0.4477 -1,-1 0,-0.5523 0.4477,-1 1,-1 0.5523,0 1,0.4477 1,1 z"
         fill="#1c274c"
         id="path4"
         style="fill:#ffffff" />
    </g>
    <!--!Font Awesome Free 6.7.2 by @fontawesome - https://fontawesome.com License - https://fontawesome.com/license/free Copyright 2025 Fonticons, Inc.-->
    <path
       d="m 8.2151459,21.595465 a 1.0897322,1.0897322 0 1 1 2.1794641,0 1.0897322,1.0897322 0 1 1 -2.1794641,0 z m 0.9081092,6.901638 v 2.905952 c 0,0.401837 -0.3246494,0.726488 -0.7264884,0.726488 -0.401839,0 -0.7264876,-0.324651 -0.7264876,-0.726488 V 26.338071 L 7.0209796,27.418722 C 6.8143842,27.761532 6.3671415,27.872777 6.0243286,27.666181 5.681518,27.459586 5.570275,27.012343 5.7768703,26.66953 L 7.10044,24.467364 c 0.3950275,-0.65611 1.1033531,-1.057949 1.868437,-1.057949 h 0.6742711 c 0.7650839,0 1.4734089,0.401839 1.8684369,1.057949 l 1.323571,2.202166 c 0.206595,0.342813 0.09534,0.790056 -0.24746,0.996651 -0.342812,0.206596 -0.790057,0.09535 -0.996651,-0.247459 l -0.651569,-1.080651 v 5.064984 c 0,0.401837 -0.32465,0.726488 -0.726488,0.726488 -0.4018389,0 -0.7264889,-0.324651 -0.7264889,-0.726488 v -2.905952 z"
       id="path1-5"
       style="fill:#ffffff;stroke-width:0.0227027" />
    <g
       id="g6"
       inkscape:transform-center-x="2.0272969"
       inkscape:transform-center-y="1.7911683"
       transform="matrix(0.2703671,0.01279822,-0.01279822,0.2703671,18.006786,6.0511836)">
      <path
         style="fill:#ffffff;stroke:#ffffff;stroke-width:0.499999;stroke-linecap:round;stroke-linejoin:round"
         d="M 24.284139,8.9793997 12.940335,19.562288"
         id="path5"
         inkscape:transform-center-x="5.882884"
         inkscape:transform-center-y="5.4771927" />
      <path
         style="fill:none;stroke:#ffffff;stroke-width:0.499999;stroke-linecap:round;stroke-linejoin:round;stroke-opacity:1"
         id="path6"
         sodipodi:type="arc"
         sodipodi:cx="22.715755"
         sodipodi:cy="7.8420758"
         sodipodi:rx="2"
         sodipodi:ry="2"
         sodipodi:start="3.1415927"
         sodipodi:end="0"
         sodipodi:arc-type="arc"
         d="m 20.715755,7.8420758 a 2,2 0 0 1 2,-2 2,2 0 0 1 2,2"
         sodipodi:open="true"
         inkscape:transform-center-x="1.1553079"
         inkscape:transform-center-y="1.0965761"
         transform="rotate(42.092746)" />
    </g>
  </g>
</svg>
